<mxfile host="app.diagrams.net" modified="2022-03-09T05:18:47.014Z" agent="5.0 (Windows NT 10.0; Win64; x64) AppleWebKit/537.36 (KHTML, like Gecko) Chrome/99.0.4844.51 Safari/537.36" etag="xt1BABsme8o9Jg43BvhI" version="16.5.2" type="github">
  <diagram id="ZGN7krpYRSF4m2-rEQwF" name="第 1 页">
    <mxGraphModel dx="866" dy="922" grid="0" gridSize="10" guides="1" tooltips="1" connect="1" arrows="1" fold="1" page="0" pageScale="1" pageWidth="827" pageHeight="1169" math="0" shadow="0">
      <root>
        <mxCell id="0" />
        <mxCell id="1" parent="0" />
        <mxCell id="PpNogmW6z22D3zdp68RR-1" value="" style="rounded=1;whiteSpace=wrap;html=1;strokeWidth=2;fillWeight=4;hachureGap=8;hachureAngle=45;fillColor=#d5e8d4;sketch=1;strokeColor=#82b366;" vertex="1" parent="1">
          <mxGeometry x="10" y="210" width="760" height="205" as="geometry" />
        </mxCell>
        <mxCell id="PpNogmW6z22D3zdp68RR-2" value="主内存" style="text;html=1;align=center;verticalAlign=middle;resizable=0;points=[];autosize=1;strokeColor=none;fillColor=none;fontSize=31;fontStyle=1" vertex="1" parent="1">
          <mxGeometry x="27" y="282" width="110" height="40" as="geometry" />
        </mxCell>
        <mxCell id="PpNogmW6z22D3zdp68RR-29" style="edgeStyle=orthogonalEdgeStyle;curved=1;rounded=0;orthogonalLoop=1;jettySize=auto;html=1;entryX=0.5;entryY=1;entryDx=0;entryDy=0;fontSize=26;strokeWidth=3;" edge="1" parent="1" source="PpNogmW6z22D3zdp68RR-3" target="PpNogmW6z22D3zdp68RR-21">
          <mxGeometry relative="1" as="geometry" />
        </mxCell>
        <mxCell id="PpNogmW6z22D3zdp68RR-3" value="共享变量" style="rounded=1;whiteSpace=wrap;html=1;strokeWidth=2;fillWeight=4;hachureGap=8;hachureAngle=45;fillColor=#f8cecc;sketch=1;fontSize=26;strokeColor=#b85450;" vertex="1" parent="1">
          <mxGeometry x="308" y="275" width="150" height="60" as="geometry" />
        </mxCell>
        <mxCell id="PpNogmW6z22D3zdp68RR-4" value="" style="rounded=1;whiteSpace=wrap;html=1;strokeWidth=2;fillWeight=4;hachureGap=8;hachureAngle=45;fillColor=#cce5ff;sketch=1;fontSize=26;strokeColor=#36393d;" vertex="1" parent="1">
          <mxGeometry x="104" y="-285" width="260" height="442" as="geometry" />
        </mxCell>
        <mxCell id="PpNogmW6z22D3zdp68RR-5" value="线程A" style="text;html=1;align=center;verticalAlign=middle;resizable=0;points=[];autosize=1;strokeColor=none;fillColor=none;fontSize=31;fontStyle=1" vertex="1" parent="1">
          <mxGeometry x="186" y="-350" width="94" height="41" as="geometry" />
        </mxCell>
        <mxCell id="PpNogmW6z22D3zdp68RR-6" value="本地内存" style="rounded=1;whiteSpace=wrap;html=1;strokeWidth=2;fillWeight=4;hachureGap=8;hachureAngle=45;fillColor=#cdeb8b;sketch=1;fontSize=26;strokeColor=#36393d;labelPosition=center;verticalLabelPosition=middle;align=center;verticalAlign=top;" vertex="1" parent="1">
          <mxGeometry x="128" y="-181" width="210" height="269" as="geometry" />
        </mxCell>
        <mxCell id="PpNogmW6z22D3zdp68RR-35" style="edgeStyle=orthogonalEdgeStyle;curved=1;rounded=0;orthogonalLoop=1;jettySize=auto;html=1;exitX=0.5;exitY=0;exitDx=0;exitDy=0;entryX=0.5;entryY=1;entryDx=0;entryDy=0;fontSize=26;strokeWidth=3;" edge="1" parent="1" source="PpNogmW6z22D3zdp68RR-7" target="PpNogmW6z22D3zdp68RR-23">
          <mxGeometry relative="1" as="geometry" />
        </mxCell>
        <mxCell id="PpNogmW6z22D3zdp68RR-7" value="共享变量副本" style="rounded=1;whiteSpace=wrap;html=1;strokeWidth=2;fillWeight=4;hachureGap=8;hachureAngle=45;fillColor=#f8cecc;sketch=1;fontSize=26;strokeColor=#b85450;" vertex="1" parent="1">
          <mxGeometry x="139" y="-60.5" width="190" height="60" as="geometry" />
        </mxCell>
        <mxCell id="PpNogmW6z22D3zdp68RR-17" value="" style="rounded=1;whiteSpace=wrap;html=1;strokeWidth=2;fillWeight=4;hachureGap=8;hachureAngle=45;fillColor=#cce5ff;sketch=1;fontSize=26;strokeColor=#36393d;" vertex="1" parent="1">
          <mxGeometry x="410" y="-285" width="260" height="442" as="geometry" />
        </mxCell>
        <mxCell id="PpNogmW6z22D3zdp68RR-18" value="线程B" style="text;html=1;align=center;verticalAlign=middle;resizable=0;points=[];autosize=1;strokeColor=none;fillColor=none;fontSize=31;fontStyle=1" vertex="1" parent="1">
          <mxGeometry x="492" y="-350" width="94" height="41" as="geometry" />
        </mxCell>
        <mxCell id="PpNogmW6z22D3zdp68RR-19" value="本地内存" style="rounded=1;whiteSpace=wrap;html=1;strokeWidth=2;fillWeight=4;hachureGap=8;hachureAngle=45;fillColor=#cdeb8b;sketch=1;fontSize=26;strokeColor=#36393d;labelPosition=center;verticalLabelPosition=middle;align=center;verticalAlign=top;" vertex="1" parent="1">
          <mxGeometry x="434" y="-181" width="210" height="270" as="geometry" />
        </mxCell>
        <mxCell id="PpNogmW6z22D3zdp68RR-37" style="edgeStyle=orthogonalEdgeStyle;curved=1;rounded=0;orthogonalLoop=1;jettySize=auto;html=1;exitX=0.5;exitY=1;exitDx=0;exitDy=0;fontSize=26;strokeWidth=3;" edge="1" parent="1" source="PpNogmW6z22D3zdp68RR-20" target="PpNogmW6z22D3zdp68RR-25">
          <mxGeometry relative="1" as="geometry" />
        </mxCell>
        <mxCell id="PpNogmW6z22D3zdp68RR-20" value="共享变量副本" style="rounded=1;whiteSpace=wrap;html=1;strokeWidth=2;fillWeight=4;hachureGap=8;hachureAngle=45;fillColor=#f8cecc;sketch=1;fontSize=26;strokeColor=#b85450;" vertex="1" parent="1">
          <mxGeometry x="445" y="-60.5" width="190" height="60" as="geometry" />
        </mxCell>
        <mxCell id="PpNogmW6z22D3zdp68RR-30" style="edgeStyle=orthogonalEdgeStyle;curved=1;rounded=0;orthogonalLoop=1;jettySize=auto;html=1;exitX=0.5;exitY=0;exitDx=0;exitDy=0;entryX=0.5;entryY=1;entryDx=0;entryDy=0;fontSize=26;strokeWidth=3;" edge="1" parent="1" source="PpNogmW6z22D3zdp68RR-21" target="PpNogmW6z22D3zdp68RR-22">
          <mxGeometry relative="1" as="geometry" />
        </mxCell>
        <mxCell id="PpNogmW6z22D3zdp68RR-21" value="read" style="rounded=1;whiteSpace=wrap;html=1;fontSize=26;" vertex="1" parent="1">
          <mxGeometry x="202" y="198" width="64" height="35" as="geometry" />
        </mxCell>
        <mxCell id="PpNogmW6z22D3zdp68RR-34" style="edgeStyle=orthogonalEdgeStyle;curved=1;rounded=0;orthogonalLoop=1;jettySize=auto;html=1;exitX=0.5;exitY=0;exitDx=0;exitDy=0;entryX=0.5;entryY=1;entryDx=0;entryDy=0;fontSize=26;strokeWidth=3;" edge="1" parent="1" source="PpNogmW6z22D3zdp68RR-22" target="PpNogmW6z22D3zdp68RR-7">
          <mxGeometry relative="1" as="geometry" />
        </mxCell>
        <mxCell id="PpNogmW6z22D3zdp68RR-22" value="load" style="rounded=1;whiteSpace=wrap;html=1;fontSize=26;" vertex="1" parent="1">
          <mxGeometry x="201" y="30" width="64" height="35" as="geometry" />
        </mxCell>
        <mxCell id="PpNogmW6z22D3zdp68RR-23" value="use" style="rounded=1;whiteSpace=wrap;html=1;fontSize=26;" vertex="1" parent="1">
          <mxGeometry x="201" y="-123" width="64" height="35" as="geometry" />
        </mxCell>
        <mxCell id="PpNogmW6z22D3zdp68RR-36" style="edgeStyle=orthogonalEdgeStyle;curved=1;rounded=0;orthogonalLoop=1;jettySize=auto;html=1;exitX=0.5;exitY=1;exitDx=0;exitDy=0;fontSize=26;strokeWidth=3;" edge="1" parent="1" source="PpNogmW6z22D3zdp68RR-24" target="PpNogmW6z22D3zdp68RR-20">
          <mxGeometry relative="1" as="geometry" />
        </mxCell>
        <mxCell id="PpNogmW6z22D3zdp68RR-24" value="assgin" style="rounded=1;whiteSpace=wrap;html=1;fontSize=26;" vertex="1" parent="1">
          <mxGeometry x="497.5" y="-125" width="85" height="35" as="geometry" />
        </mxCell>
        <mxCell id="PpNogmW6z22D3zdp68RR-39" style="edgeStyle=orthogonalEdgeStyle;curved=1;rounded=0;orthogonalLoop=1;jettySize=auto;html=1;exitX=0.5;exitY=1;exitDx=0;exitDy=0;entryX=0.5;entryY=0;entryDx=0;entryDy=0;fontSize=26;strokeWidth=3;" edge="1" parent="1" source="PpNogmW6z22D3zdp68RR-25" target="PpNogmW6z22D3zdp68RR-26">
          <mxGeometry relative="1" as="geometry" />
        </mxCell>
        <mxCell id="PpNogmW6z22D3zdp68RR-25" value="store" style="rounded=1;whiteSpace=wrap;html=1;fontSize=26;" vertex="1" parent="1">
          <mxGeometry x="508" y="30" width="64" height="35" as="geometry" />
        </mxCell>
        <mxCell id="PpNogmW6z22D3zdp68RR-40" style="edgeStyle=orthogonalEdgeStyle;curved=1;rounded=0;orthogonalLoop=1;jettySize=auto;html=1;exitX=0.5;exitY=1;exitDx=0;exitDy=0;entryX=1;entryY=0.5;entryDx=0;entryDy=0;fontSize=26;strokeWidth=3;" edge="1" parent="1" source="PpNogmW6z22D3zdp68RR-26" target="PpNogmW6z22D3zdp68RR-3">
          <mxGeometry relative="1" as="geometry" />
        </mxCell>
        <mxCell id="PpNogmW6z22D3zdp68RR-26" value="write" style="rounded=1;whiteSpace=wrap;html=1;fontSize=26;" vertex="1" parent="1">
          <mxGeometry x="508" y="198" width="64" height="35" as="geometry" />
        </mxCell>
        <mxCell id="PpNogmW6z22D3zdp68RR-27" value="lock" style="rounded=1;whiteSpace=wrap;html=1;fontSize=26;" vertex="1" parent="1">
          <mxGeometry x="280" y="357" width="64" height="35" as="geometry" />
        </mxCell>
        <mxCell id="PpNogmW6z22D3zdp68RR-28" value="unlock" style="rounded=1;whiteSpace=wrap;html=1;fontSize=26;" vertex="1" parent="1">
          <mxGeometry x="397" y="357" width="93" height="35" as="geometry" />
        </mxCell>
      </root>
    </mxGraphModel>
  </diagram>
</mxfile>
